<svg xmlns="http://www.w3.org/2000/svg" fill="none" viewBox="0 0 346 136"><path fill="#fff" d="m23.895 15 2.667 7.255 7.206 2.684-7.206 2.684-2.667 7.255-2.666-7.255-7.207-2.684 7.207-2.684L23.895 15zM96.592 61.363c-3.013-4.039-3.612-10.153-2.002-15.62.68-2.311 1.756-4.507 3.21-6.381a15.843 15.843 0 0 1 2.524-2.592l-.013-.018c-2 .765-3.812 1.933-5.4 3.373-2.69 2.439-4.736 5.657-5.955 9.014-2.492 6.866-1.525 14.316 4.466 16.892l4.021-3.653c-.302-.32-.586-.66-.85-1.015z"/><path fill="#fff" fill-rule="evenodd" d="M33.313 40.16a52.783 52.783 0 0 0-4.688 8.69c-2.568 6.025-4.027 12.841-3.563 19.41.47 10.029 4.78 17.049 11.938 20.87 3.902 2.084 8.995 3.177 13 2.853-2.064 2.583-3.012 3.557-5.063 5.279l-.234-.024c-4.981-.519-11.591-1.206-13.453-10.348-5.258 2.24-7.792 10.075-6.813 14.686.673 3.17 2.54 5.683 4.75 7.566 1.35 1.148 2.916 2.126 4.625 2.951 3.233 5.187 17.383 7.978 21.313 8.335 23.653 2.514 44.419-3.515 55.5-13.135 5.538-4.808 9.473-11.326 8.375-18.618-.734-4.873-3.556-9.043-7.875-12.472a22.226 22.226 0 0 0 2.625-2.273c4.787-4.837 7.128-11.527 7.25-18.385.245-13.754-8.201-29.201-25.875-36.766C72.762 8.635 46.32 20.085 34 39.194l-.106.154c-.174.253-.35.507-.519.764l-.063.048zM92.82 23.912a36.306 36.306 0 0 0-9.834-2.892v-.002l-.034-.003c-17.504-2.522-35.364 6.745-44.776 22.04C46.822 31.448 62.05 24.368 75.43 24.948c-6.079 20.463-22.248 34.668-36.791 30.63.559 1.036 1.653 1.798 3 2.352-1.997-.33-3.86-.97-5.502-1.95 5.639 6.704 22.776 5.845 32.088-2.2 4.95-4.276 8.833-9.918 11.449-15.498-3.987 12.012-11.787 22.42-24.616 25.504-2.037.49-3.908 1.72-4.197 3.794-.293 2.103 1.377 3.673 3.141 4.854 3.05 2.042 3.819 4.881 4.301 6.664.099.364.185.685.277.945.022.317.035.612.042.885-1.064.185-2.119.34-3.161.46-.789-1.465-2.088-2.736-3.715-3.805-3.243.842-7.834 1.41-11.95.525-1.956-.42-3.5-.96-4.706-1.56-2.094-2.097-3.62-4.907-4.39-8.56.779 16.752 13.737 20.27 28.252 18.487-1.258 5.415-2.888 9.063-6.218 11.669 2.522.19 5.117.18 7.725-.006 2.266-2.808 3.045-7.77 3.71-12.01.154-.974.3-1.91.458-2.773a27.771 27.771 0 0 1 .422-1.968c1.62-6.366 5.171-9.937 9.033-11.3 10.59-2.137 10.302 19.235.787 25.102l-.622.354-.001.001c9.613-.687 24.685-6.28 21.055-17.094a44.982 44.982 0 0 0-1.125-3.517l.034.034c26.934 2.649 29.951-37.69-1.39-51.055zm-37.123 90.931c45.236 4.827 76.238-23.545 45.584-38.117 11.541 13.35.17 25.474-17.792 32.136 6.677-4.313 12.158-11.068 15.46-20.86-20.682 19.566-69.08 20.973-68.014 6.778-8.392 16.49 32.431 21.519 55.515 6.933-11.296 9.819-21.848 11.828-35.618 12.488 1.617.28 3.241.495 4.865.642zM44.342 51.435s1.064.642 2.589-.175c2.463-1.32 3.037-9.275 3.037-13.92 0-1.256-1.544-1.278-1.544-1.278a5.827 5.827 0 0 0-.13.013c-1.798.189-3.178 1.19-3.083 2.235.357 3.893-.319 8.76-1.217 11.922-.127.447.012.866.348 1.203zm13.906-6.394s1.064.642 2.588-.175c2.463-1.32 3.038-9.275 3.038-13.92 0-1.256-1.544-1.278-1.544-1.278a5.895 5.895 0 0 0-.13.012c-1.799.19-3.179 1.19-3.083 2.236.356 3.893-.32 8.76-1.217 11.922-.127.447.012.866.348 1.203z" clip-rule="evenodd"/><path fill="#fff" d="m14.149 37.938-1.52-4.165-1.52 4.165L7 39.479l4.108 1.541 1.52 4.165 1.52-4.165 4.11-1.541-4.11-1.541zM148.48 109V26.68h15.344l6.608 42.672.56 4.368h.224l.56-4.368 6.608-42.672h15.344V109h-11.2V53.784h-.672l-.448 3.472L174.24 109h-6.272L160.8 57.256l-.448-3.472h-.672V109h-11.2zm66.57.896c-4.517 0-8.083-1.549-10.696-4.648-2.576-3.136-3.864-6.963-3.864-11.48v-30.8c0-4.779 1.288-8.661 3.864-11.648 2.576-2.987 6.179-4.48 10.808-4.48 3.024 0 5.619.69 7.784 2.072 2.203 1.381 3.883 3.267 5.04 5.656 1.157 2.352 1.736 5.04 1.736 8.064V80.44h-18.704v13.328c0 1.53.336 2.95 1.008 4.256.709 1.27 1.755 1.904 3.136 1.904 1.456 0 2.483-.597 3.08-1.792.635-1.195.952-2.65.952-4.368v-6.72h10.528v7.056c0 4.741-1.288 8.568-3.864 11.48-2.539 2.875-6.141 4.312-10.808 4.312zm-4.032-38.304h8.176v-8.624c0-1.68-.299-3.136-.896-4.368-.56-1.27-1.605-1.904-3.136-1.904-1.419 0-2.464.653-3.136 1.96-.672 1.27-1.008 2.707-1.008 4.312v8.624zm37.954 38.304c-2.651 0-4.965-.448-6.944-1.344-1.979-.896-3.621-2.165-4.928-3.808-1.307-1.68-2.296-3.659-2.968-5.936-.635-2.277-.952-4.816-.952-7.616h10.528c0 2.501.392 4.685 1.176 6.552.821 1.83 2.184 2.744 4.088 2.744 1.643 0 2.707-.69 3.192-2.072.485-1.381.728-2.968.728-4.76 0-2.09-.821-4.219-2.464-6.384-1.605-2.203-3.285-4.163-5.04-5.88-3.024-2.987-5.544-5.936-7.56-8.848-1.979-2.912-2.968-6.328-2.968-10.248 0-4.63 1.213-8.363 3.64-11.2 2.427-2.837 5.88-4.256 10.36-4.256 2.688 0 4.947.355 6.776 1.064 1.867.71 3.36 1.773 4.48 3.192 1.12 1.419 1.923 3.155 2.408 5.208.523 2.053.784 4.424.784 7.112H252.78c0-1.941-.205-3.621-.616-5.04-.411-1.419-1.437-2.128-3.08-2.128-1.344 0-2.296.579-2.856 1.736-.56 1.12-.84 2.557-.84 4.312 0 2.053.485 3.883 1.456 5.488 1.008 1.568 2.669 3.49 4.984 5.768a75.986 75.986 0 0 1 7.952 9.072c2.427 3.21 3.64 6.701 3.64 10.472 0 2.464-.336 4.723-1.008 6.776-.635 2.053-1.587 3.827-2.856 5.32a12.608 12.608 0 0 1-4.536 3.472c-1.755.821-3.771 1.232-6.048 1.232zm18.906-.896V26.68h11.312v25.256c.971-1.008 2.408-2.11 4.312-3.304 1.904-1.195 3.715-1.792 5.432-1.792 1.867 0 3.435.541 4.704 1.624 1.269 1.083 2.221 2.539 2.856 4.368.635 1.792.952 3.79.952 5.992V109h-11.312V61.176c0-1.12-.261-2.016-.784-2.688-.485-.71-1.064-1.064-1.736-1.064-.784 0-1.717.448-2.8 1.344-1.083.859-1.624 1.83-1.624 2.912V109h-11.312zm37.403 21.952c-.485 0-1.064-.019-1.736-.056a16.493 16.493 0 0 1-1.96-.224v-10.024c.112.037.411.075.896.112.485.075.803.112.952.112 2.091 0 3.771-.56 5.04-1.68 1.307-1.12 2.221-2.613 2.744-4.48.187-.56.28-1.213.28-1.96.037-.747.056-1.4.056-1.96l-10.416-63.056h11.088l4.48 38.192.224 4.256h.448l.224-4.256 4.48-38.192h11.088l-10.864 65.856c-.411 3.285-1.344 6.235-2.8 8.848-1.419 2.651-3.323 4.723-5.712 6.216-2.389 1.531-5.227 2.296-8.512 2.296z"/></svg>